<?xml version="1.0" encoding="utf-8"?>
<!-- Generator: Adobe Illustrator 25.4.1, SVG Export Plug-In . SVG Version: 6.00 Build 0)  -->
<svg version="1.1" id="Capa_1" xmlns="http://www.w3.org/2000/svg" xmlns:xlink="http://www.w3.org/1999/xlink" x="0px" y="0px"
	 viewBox="0 0 189.3 219.1" style="enable-background:new 0 0 189.3 219.1;" xml:space="preserve">
<style type="text/css">
	.st0{fill:#474563;}
	.st1{fill:none;stroke:#F6BAFC;stroke-width:0.2629;stroke-miterlimit:10;}
	.st2{fill:url(#SVGID_1_);}
	.st3{fill:url(#SVGID_00000123425606479302729160000012577321012285810855_);}
	.st4{fill:url(#SVGID_00000040555086216082963140000008002377780024208822_);}
	.st5{fill:url(#SVGID_00000157284984506252493510000017770962736664669625_);}
	.st6{fill:url(#SVGID_00000061462895725086404500000018067986099782709948_);}
	.st7{fill:#DD9D40;}
	.st8{fill:url(#SVGID_00000035501523910952900010000002249975827849405058_);}
	.st9{fill:url(#SVGID_00000037679852578085891390000015221464486882739870_);}
	.st10{fill:url(#SVGID_00000087384494489844908400000006696082785296214944_);}
	.st11{opacity:0.57;fill:#14806D;}
	.st12{fill:url(#SVGID_00000034070220226906594570000000240853806115911349_);}
	.st13{opacity:0.44;}
	.st14{fill:url(#SVGID_00000058549678416305280840000017603458446679218092_);}
	.st15{fill:#14806D;}
	.st16{fill:url(#SVGID_00000078745324557133187690000009882467620041816234_);}
	.st17{fill:#FFFFFF;}
	.st18{fill:url(#SVGID_00000135677807960609592080000008300470863591894153_);}
	.st19{opacity:0.56;}
	.st20{fill:url(#SVGID_00000076606074171115887340000017483795829682551997_);}
	.st21{opacity:0.36;fill:#474563;}
	.st22{fill:url(#SVGID_00000057849640006794528280000000179395752669613213_);}
	.st23{fill:#F6BAFC;}
	.st24{fill:url(#SVGID_00000036970636811546528060000000290316130306908089_);}
	.st25{fill:none;stroke:#FFFFFF;stroke-width:0.2027;stroke-miterlimit:10;}
</style>
<g>
	<g>
		<path class="st0" d="M145.4,188.2H48.6c-2.6,0-4.8-2.1-4.8-4.8v0c0-2.6,2.1-4.8,4.8-4.8h96.8V188.2z"/>
		<circle class="st0" cx="50.1" cy="183.4" r="25.5"/>
		<path class="st1" d="M70.9,188.2H48.6c-2.6,0-4.8-2.1-4.8-4.8v0c0-2.6,2.1-4.8,4.8-4.8h18.3"/>
	</g>
	<g>
		
			<linearGradient id="SVGID_1_" gradientUnits="userSpaceOnUse" x1="750.8343" y1="744.9394" x2="750.8343" y2="737.0606" gradientTransform="matrix(0.531 0.8474 -0.8474 0.531 367.2853 -906.2973)">
			<stop  offset="0" style="stop-color:#14806D"/>
			<stop  offset="0.2015" style="stop-color:#158773"/>
			<stop  offset="0.5039" style="stop-color:#179C82"/>
			<stop  offset="0.8449" style="stop-color:#1BBB9A"/>
		</linearGradient>
		<polygon class="st2" points="141.4,121.3 139.3,125.3 137.2,129.4 134.7,125.5 132.3,121.6 136.9,121.5 		"/>
		
			<linearGradient id="SVGID_00000158024379156340592230000005759824643216082068_" gradientUnits="userSpaceOnUse" x1="316.6974" y1="354.2472" x2="316.6974" y2="344.5401" gradientTransform="matrix(0.8811 -0.473 0.473 0.8811 -296.2819 -27.4153)">
			<stop  offset="0" style="stop-color:#14806D"/>
			<stop  offset="0.2015" style="stop-color:#158773"/>
			<stop  offset="0.5039" style="stop-color:#179C82"/>
			<stop  offset="0.8449" style="stop-color:#1BBB9A"/>
		</linearGradient>
		<polygon style="fill:url(#SVGID_00000158024379156340592230000005759824643216082068_);" points="145.7,126.4 150.5,129.3 
			155.2,132.3 150.3,134.9 145.4,137.6 145.5,132 		"/>
		
			<linearGradient id="SVGID_00000119819119136061174810000009661706227779307698_" gradientUnits="userSpaceOnUse" x1="350.1328" y1="314.3537" x2="350.1328" y2="305.1756" gradientTransform="matrix(0.7802 -0.6255 0.6255 0.7802 -307.0672 98.2886)">
			<stop  offset="0" style="stop-color:#14806D"/>
			<stop  offset="0.2015" style="stop-color:#158773"/>
			<stop  offset="0.5039" style="stop-color:#179C82"/>
			<stop  offset="0.8449" style="stop-color:#1BBB9A"/>
		</linearGradient>
		<polygon style="fill:url(#SVGID_00000119819119136061174810000009661706227779307698_);" points="157,117.4 161.9,119.3 
			166.9,121.2 162.7,124.6 158.6,127.9 157.8,122.6 		"/>
		
			<linearGradient id="SVGID_00000044170753974679635650000008888740347471960742_" gradientUnits="userSpaceOnUse" x1="700.5741" y1="747.1928" x2="700.5741" y2="739.314" gradientTransform="matrix(0.531 0.8474 -0.8474 0.531 367.2853 -906.2973)">
			<stop  offset="0" style="stop-color:#14806D"/>
			<stop  offset="0.2015" style="stop-color:#158773"/>
			<stop  offset="0.5039" style="stop-color:#179C82"/>
			<stop  offset="0.8449" style="stop-color:#1BBB9A"/>
		</linearGradient>
		<polygon style="fill:url(#SVGID_00000044170753974679635650000008888740347471960742_);" points="112.8,79.9 110.7,83.9 108.6,88 
			106.1,84.1 103.7,80.3 108.3,80.1 		"/>
		
			<linearGradient id="SVGID_00000056429936507216566760000010430490478472912266_" gradientUnits="userSpaceOnUse" x1="66.8201" y1="59.8388" x2="109.0354" y2="59.8388">
			<stop  offset="0" style="stop-color:#F2C572"/>
			<stop  offset="1" style="stop-color:#DD9D40"/>
		</linearGradient>
		<path style="fill:url(#SVGID_00000056429936507216566760000010430490478472912266_);" d="M109,67.8c-0.1,1.8-0.4,3.7-1.2,5.7
			c-2.9,7.3-9.7,9.8-10.7,10.1c-6.3-5.7-15.2-7.6-21.5-13.3c-3.5-3.1-4.3-10-7.8-13.1c-0.4-1.1-2-6-0.2-11.1
			c0.2-0.6,0.5-1.2,0.8-1.8c2.9-5.5,10.1-10.2,16.1-7.7c4.7,1.9,6.3,7.3,6.6,8.3c-3.5-2.6-7.4-2.4-8.9-0.6c-1.5,1.9-0.9,5.7,1.2,7.2
			c3.4,2.4,7.9-3.4,14.3-1.8c3.6,0.9,6.1,3.6,7.6,6c1,1.5,1.6,2.9,1.9,3.5C107.7,60.4,109.2,63.7,109,67.8z"/>
		<path class="st7" d="M79.8,60.1c0,2.4-1.8,7.8-2.9,9.8c-3.5-3.1-5.7-9.5-9.1-12.6c-0.4-1.1-2-6-0.2-11.1
			C74.6,47.1,79.8,53,79.8,60.1z"/>
		<path class="st7" d="M109,67.8c-0.9,0.4-1.9,0.7-2.9,0.7c-3.5,0-6.4-2.9-6.4-6.4c0-3.3,2.4-6,5.6-6.4c1,1.5,1.6,2.9,1.9,3.5
			C107.7,60.4,109.2,63.7,109,67.8z"/>
		
			<linearGradient id="SVGID_00000098924158713461121650000003493383149601851549_" gradientUnits="userSpaceOnUse" x1="44.5627" y1="164.8032" x2="97.1895" y2="164.8032">
			<stop  offset="5.427257e-02" style="stop-color:#1BBB9A"/>
			<stop  offset="0.2313" style="stop-color:#19A88C"/>
			<stop  offset="0.5055" style="stop-color:#16927B"/>
			<stop  offset="0.7669" style="stop-color:#158571"/>
			<stop  offset="1" style="stop-color:#14806D"/>
		</linearGradient>
		<path style="fill:url(#SVGID_00000098924158713461121650000003493383149601851549_);" d="M67.2,149.7h-0.7
			c-7.5,0-13.7,6.1-13.7,13.7v9.1h-0.7c-4.2,0-7.6,3.2-7.6,7.4v0l52.6-0.2L67.2,149.7z"/>
		
			<linearGradient id="SVGID_00000106831320996575219510000000897639028594742415_" gradientUnits="userSpaceOnUse" x1="29.739" y1="117.5992" x2="76.8323" y2="117.5992">
			<stop  offset="5.427257e-02" style="stop-color:#1BBB9A"/>
			<stop  offset="8.828308e-02" style="stop-color:#1AB696"/>
			<stop  offset="0.2844" style="stop-color:#189E84"/>
			<stop  offset="0.4928" style="stop-color:#168D77"/>
			<stop  offset="0.7199" style="stop-color:#14836F"/>
			<stop  offset="1" style="stop-color:#14806D"/>
		</linearGradient>
		<path style="fill:url(#SVGID_00000106831320996575219510000000897639028594742415_);" d="M67.3,115.9
			c-8.7-5.6-17.5-11.1-26.2-16.7l-5.5-4.4l3.2,7.3c0,0,0,0-0.1,0.1L34,100l1.1,7c-0.1,0.1-0.2,0.2-0.2,0.3l-5.1-3.9
			c0,0,4.3,15,47.1,37C73.7,128.9,70.5,127.4,67.3,115.9z"/>
		
			<linearGradient id="SVGID_00000041289730991659253860000002690128360368256921_" gradientUnits="userSpaceOnUse" x1="90.8914" y1="179.6985" x2="90.8914" y2="36.949">
			<stop  offset="0" style="stop-color:#14806D"/>
			<stop  offset="7.883297e-02" style="stop-color:#158B75"/>
			<stop  offset="0.3108" style="stop-color:#18A589"/>
			<stop  offset="0.518" style="stop-color:#1AB596"/>
			<stop  offset="0.6782" style="stop-color:#1BBB9A"/>
		</linearGradient>
		<path style="fill:url(#SVGID_00000041289730991659253860000002690128360368256921_);" d="M178.8,158.2
			c-6.7,15.3-22.1,20.3-25.7,21.3c-0.2,0.1-0.4,0.1-0.5,0.1H78.6c-6-8.2-16.6-25.4-17.9-48.9c-0.3-5.2-0.1-10.1,0.4-14.4
			c0.3-2.7,0.7-5.3,1.2-7.6c0-0.2,0.1-0.4,0.1-0.6c-16-12.5-32-25-48-37.5h0c-2.9-2.3-5.8-4.5-8.6-6.8C0.6,59.7-1.4,52.6,1,46.4
			c0.8-2.1,1.6-4.2,2.4-6.3C4.2,38.1,6,36.9,8,36.9c0.6,0,1.1,0.1,1.7,0.3c3,0,4.8,3.2,3.3,5.8l-1.8,3l2.2-3.5c0.8-1.3,2.1-2,3.5-2
			c0.5,0,1,0.1,1.5,0.3c2,0.8,3.1,3,2.5,5l-1.3,4.6c13.3,5.9,26.7,11.7,40,17.6c0.6-7.9,4.7-10.8,8.8-10.8c5.7,0,11.4,5.6,8.4,11.4
			c3.8-6.5,8-8.5,11.6-8.5c4.6,0,8.2,3.3,8.9,4.6c5.1,9.5,10.2,19,15.3,28.5c3.4-2.2,10.8-7.5,15.5-17.3c3.3-6.7,4-12.9,4.2-16.7
			v-8.7l4.4,11l1.5-7l3.3,8.8l1.8-5.4c0,0,3.8,13.9-1,32.9c-2.8,11.1-6.4,19.8-9.6,25.4c-0.2,0.3-0.3,0.6-0.5,0.9
			c3.8,6.4,7.6,12.7,11.3,19.1c3.3-1.3,9.4-4.1,14.9-10.1c5-5.4,7.3-11,8.3-14.3C180.8,124.1,185.5,143.1,178.8,158.2z"/>
		<polygon class="st11" points="143.6,136.2 153,179.6 127.8,137.9 		"/>
		
			<linearGradient id="SVGID_00000101783747953531646950000008441963468807807910_" gradientUnits="userSpaceOnUse" x1="60.6172" y1="143.9309" x2="110.5334" y2="143.9309">
			<stop  offset="9.642673e-02" style="stop-color:#F2C572"/>
			<stop  offset="0.6613" style="stop-color:#E4A950"/>
			<stop  offset="1" style="stop-color:#DD9D40"/>
		</linearGradient>
		<path style="fill:url(#SVGID_00000101783747953531646950000008441963468807807910_);" d="M110.5,179.7H78.6
			c-2.1-2.9-4.8-6.9-7.5-11.9c-1-1.9-2.1-4-3-6.3c-0.7-1.7-1.5-3.5-2.1-5.3c-1-2.7-1.9-5.6-2.7-8.7c-0.7-2.9-1.4-6-1.8-9.2
			c-0.2-1.1-0.3-2.2-0.4-3.3c-0.1-1.4-0.3-2.8-0.3-4.3c-0.1-1.4-0.1-2.7-0.1-4.1c0-1.8,0-3.5,0.1-5.1c0.3-5,0.9-9.5,1.8-13.4l9,13.4
			l3.5,5.1l5.6,8.4l2.2,3.3l6.2,9.2l5.8,8.7l3.6,5.3l4.2,6.3L110.5,179.7z"/>
		<g class="st13">
			<path class="st7" d="M94.8,156.2H66c-1-2.7-1.9-5.6-2.7-8.7H89L94.8,156.2z"/>
			<path class="st7" d="M82.8,138.4H61.5c-0.2-1.1-0.3-2.2-0.4-3.3h19.5L82.8,138.4z"/>
			<path class="st7" d="M75,126.8H60.6c0-1.8,0-3.5,0.1-5.1h10.8L75,126.8z"/>
			<path class="st7" d="M102.5,167.8H71.2c-1-1.9-2.1-4-3-6.3h30.2L102.5,167.8z"/>
		</g>
		
			<linearGradient id="SVGID_00000127006494448708296100000011525518652976976011_" gradientUnits="userSpaceOnUse" x1="76.8323" y1="164.8032" x2="152.5415" y2="164.8032">
			<stop  offset="5.427257e-02" style="stop-color:#1BBB9A"/>
			<stop  offset="0.2313" style="stop-color:#19A88C"/>
			<stop  offset="0.5055" style="stop-color:#16927B"/>
			<stop  offset="0.7669" style="stop-color:#158571"/>
			<stop  offset="1" style="stop-color:#14806D"/>
		</linearGradient>
		<path style="fill:url(#SVGID_00000127006494448708296100000011525518652976976011_);" d="M98.8,149.7L98.8,149.7
			c-7.5,0-13.7,6.1-13.7,13.7v9.1h-0.9c-4.1,0-7.4,3.3-7.4,7.4v0l75.7-0.2l-52.5-29.6C99.7,149.8,99.2,149.7,98.8,149.7z"/>
		<polygon class="st11" points="112.6,93.3 97.2,98 107.5,83.7 		"/>
		<ellipse transform="matrix(0.3589 -0.9334 0.9334 0.3589 -36.266 45.8152)" class="st11" cx="15.2" cy="49.3" rx="6.4" ry="1.9"/>
		<ellipse transform="matrix(0.3589 -0.9334 0.9334 0.3589 -38.6534 35.8326)" class="st11" cx="6.8" cy="46.1" rx="6.4" ry="1.9"/>
		<path class="st15" d="M77.8,70.7c0,0.3,0.7,5,4.1,6.6c3.6,1.6,9.1-0.7,11.3-6.2c-2.2,3.4-6.1,5.1-9.7,4.3
			C79.9,74.4,78.1,71.2,77.8,70.7z"/>
		<path class="st15" d="M61.4,67.7c0,0.3,0.6,4.2,3.4,5.5c3,1.3,7.6-0.6,9.5-5.2c-1.9,2.9-5.1,4.3-8.1,3.6
			C63.1,70.8,61.6,68.1,61.4,67.7z"/>
		
			<linearGradient id="SVGID_00000085232852551870989160000008949716114861805730_" gradientUnits="userSpaceOnUse" x1="14.5013" y1="89.7409" x2="90.8914" y2="89.7409">
			<stop  offset="0.2806" style="stop-color:#F2C572"/>
			<stop  offset="0.6105" style="stop-color:#F1C370"/>
			<stop  offset="0.7579" style="stop-color:#EEBD69"/>
			<stop  offset="0.869" style="stop-color:#E9B35C"/>
			<stop  offset="0.9614" style="stop-color:#E1A54A"/>
			<stop  offset="1" style="stop-color:#DD9D40"/>
		</linearGradient>
		<path style="fill:url(#SVGID_00000085232852551870989160000008949716114861805730_);" d="M90.9,87.7c-0.2,8.2-11.8,22.7-28.5,21
			c0-0.2,0.1-0.4,0.1-0.6c-16-12.5-32-25-48-37.5c8.6,5.4,20.6,11.8,35.6,16.2c1.6,0.5,3.3,0.9,5,1.3c2,0.5,4.1,1,6.2,1.4
			c1.4,0.3,2.8,0.5,4.2,0.8c0.5,0.1,0.9,0.2,1.4,0.2C74.6,91.7,82.8,91.3,90.9,87.7z"/>
		<path class="st15" d="M77.8,70.7c0,0.3,0.7,5,4.1,6.6c3.6,1.6,9.1-0.7,11.3-6.2c-2.2,3.4-6.1,5.1-9.7,4.3
			C79.9,74.4,78.1,71.2,77.8,70.7z"/>
		<g>
			<path class="st17" d="M55.1,88.1l-0.9,1.1L51,93.3l-0.7-5.2l-0.2-1.3C51.8,87.3,53.4,87.7,55.1,88.1z"/>
			<path class="st17" d="M66.9,90.5l-1.5,1.8l-3.3,4.1l-0.7-5.2l-0.2-1.7c1.4,0.3,2.8,0.5,4.2,0.8C66,90.4,66.4,90.4,66.9,90.5z"/>
		</g>
		<path class="st15" d="M85.7,86.5c1.6-1.8,4.3-2.1,6.2-0.8c1.8,1.3,2.5,3.7,1.5,5.8c-0.1-0.5-0.7-2.4-2.5-3.8
			C88.6,86,86.1,86.4,85.7,86.5z"/>
		
			<linearGradient id="SVGID_00000000212716506132294530000010039777766145764510_" gradientUnits="userSpaceOnUse" x1="167.4126" y1="179.5618" x2="167.4126" y2="111.7411">
			<stop  offset="0" style="stop-color:#DD9D40"/>
			<stop  offset="3.864519e-02" style="stop-color:#E1A54A"/>
			<stop  offset="0.131" style="stop-color:#E9B35C"/>
			<stop  offset="0.2421" style="stop-color:#EEBD69"/>
			<stop  offset="0.3895" style="stop-color:#F1C370"/>
			<stop  offset="0.7194" style="stop-color:#F2C572"/>
		</linearGradient>
		<path style="fill:url(#SVGID_00000000212716506132294530000010039777766145764510_);" d="M178.8,158.2
			c-6.7,15.3-22.1,20.3-25.7,21.3c5-7,10.8-17.1,13.8-30.3c3.8-16.5,1.7-30.2,0-37.6C180.8,124.1,185.5,143.1,178.8,158.2z"/>
		<g class="st19">
			<circle class="st15" cx="101" cy="163.6" r="3.9"/>
			<circle class="st15" cx="91.8" cy="164.8" r="2"/>
			<circle class="st15" cx="114.4" cy="173.4" r="1.8"/>
			<circle class="st15" cx="102.4" cy="173" r="1.4"/>
			<circle class="st15" cx="36.3" cy="62.1" r="2.3"/>
			<circle class="st15" cx="47" cy="69.8" r="3.2"/>
			<circle class="st15" cx="38.1" cy="71.8" r="1.8"/>
		</g>
	</g>
	
		<linearGradient id="SVGID_00000142159671280968734150000008161863766714254221_" gradientUnits="userSpaceOnUse" x1="59.282" y1="139.6445" x2="141.6035" y2="139.6445">
		<stop  offset="0.125" style="stop-color:#5C6D9F"/>
		<stop  offset="0.8298" style="stop-color:#474563"/>
	</linearGradient>
	<path style="fill:url(#SVGID_00000142159671280968734150000008161863766714254221_);" d="M141.6,133.4H102l-5.3,7.3l0,0
		c-4,5.6-10.4,9-17.3,9.1L64,150.2c0,0-7.8-12.7-3.4-21.2h78.7L141.6,133.4z"/>
	<path class="st21" d="M102,133.4l-5.3,7.3c-0.1-4-0.1-7.3-0.1-7.3H102z"/>
	<g>
		
			<radialGradient id="SVGID_00000029767179829006229140000002773055650635785143_" cx="137.7968" cy="175.155" r="43.9861" gradientUnits="userSpaceOnUse">
			<stop  offset="0.1702" style="stop-color:#474563"/>
			<stop  offset="0.875" style="stop-color:#5C6D9F"/>
		</radialGradient>
		<circle style="fill:url(#SVGID_00000029767179829006229140000002773055650635785143_);" cx="137.8" cy="175.2" r="44"/>
		<circle class="st1" cx="137.8" cy="175.2" r="31.8"/>
		<circle class="st23" cx="137.8" cy="175.2" r="5.5"/>
	</g>
	<g>
		
			<linearGradient id="SVGID_00000101783539826485269050000008837799596465700752_" gradientUnits="userSpaceOnUse" x1="214.7098" y1="299.0716" x2="214.7098" y2="256.6934" gradientTransform="matrix(0.8268 -0.5625 0.5625 0.8268 -166.9484 -84.3407)">
			<stop  offset="0.1702" style="stop-color:#474563"/>
			<stop  offset="0.875" style="stop-color:#5C6D9F"/>
		</linearGradient>
		<polygon style="fill:url(#SVGID_00000101783539826485269050000008837799596465700752_);" points="189.3,35 168.3,49.3 144.5,14.3 
			165.4,0 		"/>
		<circle class="st17" cx="157.8" cy="12.2" r="2.6"/>
		<circle class="st25" cx="157.8" cy="12.4" r="4.3"/>
	</g>
	<path class="st1" d="M61.7,133.6h25.5c2.2,0,4,1.8,4,4v1.3"/>
	<circle class="st23" cx="91.1" cy="138.9" r="1.9"/>
</g>
</svg>
