<?xml version="1.0" encoding="utf-8"?>
<!-- Generator: Adobe Illustrator 25.4.1, SVG Export Plug-In . SVG Version: 6.00 Build 0)  -->
<svg version="1.1" id="Capa_1" xmlns="http://www.w3.org/2000/svg" xmlns:xlink="http://www.w3.org/1999/xlink" x="0px" y="0px"
	 viewBox="0 0 364.4 244.8" style="enable-background:new 0 0 364.4 244.8;" xml:space="preserve">
<style type="text/css">
	.st0{fill:none;stroke:#1BBB9A;stroke-width:0.6026;stroke-miterlimit:10;}
	.st1{fill:#1BBB9A;}
	.st2{fill:url(#SVGID_1_);}
	.st3{fill:url(#SVGID_00000174601638383769025980000001353844003335764155_);}
	.st4{fill:url(#SVGID_00000183232577565477369670000015475933559344085941_);}
	.st5{fill:url(#SVGID_00000116925772676021896230000003103728396242265009_);}
	.st6{fill:url(#SVGID_00000018239136947415601180000006056545939923623329_);}
	.st7{fill:url(#SVGID_00000049941642177039095300000016369757663867925432_);}
	.st8{fill:url(#SVGID_00000103228937805581515020000016466368702772040887_);}
	.st9{opacity:0.51;}
	.st10{fill:#DD9D40;}
	.st11{fill:#FFFFFF;}
	.st12{fill:url(#SVGID_00000121958610589321261910000016581323787358329484_);}
	.st13{fill:url(#SVGID_00000006693878411887825310000015649640361195090579_);}
	.st14{fill:url(#SVGID_00000162309904319613845550000018030863605659435452_);}
	.st15{fill:url(#SVGID_00000043440022979938229660000016220775543594008719_);}
	.st16{opacity:0.59;}
	.st17{fill:url(#SVGID_00000124153513203587802770000008827342584672505241_);}
	.st18{fill:url(#SVGID_00000010995083005473797740000016680339821598833041_);}
	.st19{fill:url(#SVGID_00000167360782836982762710000012441473615345454987_);}
	.st20{fill:url(#SVGID_00000062152789532321320860000004248474158242660012_);}
	.st21{fill:url(#SVGID_00000060750880717448947560000008777096350230639780_);}
	.st22{fill:url(#SVGID_00000129907998907386090230000011397625236238183296_);}
	.st23{fill:url(#SVGID_00000050621097593988950200000007225306212284813701_);}
	.st24{fill:url(#SVGID_00000180366925007307447920000005195175934240481973_);}
	.st25{opacity:0.42;fill:#14806D;}
	.st26{fill:#14806D;}
	.st27{fill:url(#SVGID_00000028317617351949763360000012748413884532156561_);}
	.st28{fill:url(#SVGID_00000062176257988386806330000003761205892839729554_);}
	.st29{fill:url(#SVGID_00000098214796292654618360000013403109901264357762_);}
	.st30{fill:url(#SVGID_00000093160540691346813940000004621895843034636469_);}
	.st31{fill:url(#SVGID_00000036233869084047531240000017526278075028920193_);}
	.st32{fill:url(#SVGID_00000088106467715892374150000014772662736661595801_);}
	.st33{fill:url(#SVGID_00000021116700694662746000000015762800836790318728_);}
	.st34{opacity:0.5;}
	.st35{fill:#F6BAFC;}
	.st36{fill:#E2E1E0;}
	.st37{fill:url(#SVGID_00000072990840627769699210000015445309179995531183_);}
	.st38{fill:url(#SVGID_00000050657043611263435300000005948659165907942828_);}
	.st39{fill:url(#SVGID_00000098216811196349689680000003309043096809528231_);}
	.st40{fill:url(#SVGID_00000142176367239320159840000007854479992820389782_);}
	.st41{fill:url(#SVGID_00000115492356465094632420000003623756742439914118_);}
	.st42{fill:url(#SVGID_00000029031314493428933580000003472933160341337750_);}
	.st43{opacity:0.41;fill:#F6BAFC;}
	.st44{fill:url(#SVGID_00000018934587705963248490000017661169963719312566_);}
	.st45{fill:url(#SVGID_00000054247260100055167130000007828976896669581745_);}
	.st46{fill:#474563;}
	.st47{fill:url(#SVGID_00000113330531790800131850000001076692748241300368_);}
	.st48{opacity:0.41;fill:#474563;}
</style>
<g>
	<g>
		<g>
			<line class="st0" x1="117.2" y1="34.9" x2="117.2" y2="16.5"/>
			<circle class="st1" cx="117.2" cy="16.5" r="4.2"/>
		</g>
		<g>
			<line class="st0" x1="138.5" y1="34.9" x2="138.5" y2="16.5"/>
			<circle class="st1" cx="138.5" cy="16.5" r="4.2"/>
		</g>
		<g>
			
				<linearGradient id="SVGID_1_" gradientUnits="userSpaceOnUse" x1="542.8688" y1="-1266.5865" x2="542.8688" y2="-1278.6208" gradientTransform="matrix(0 -1 1 0 1372.5344 622.5342)">
				<stop  offset="0.2018" style="stop-color:#14806D"/>
				<stop  offset="0.8317" style="stop-color:#1BBB9A"/>
			</linearGradient>
			<polygon class="st2" points="93.9,79.7 99.9,76.2 105.9,72.7 105.9,79.7 105.9,86.6 99.9,83.1 			"/>
			
				<linearGradient id="SVGID_00000170257337861921675480000003905580386768567177_" gradientUnits="userSpaceOnUse" x1="493.0739" y1="-1266.5865" x2="493.0739" y2="-1278.6208" gradientTransform="matrix(0 -1 1 0 1372.5344 622.5342)">
				<stop  offset="0.2018" style="stop-color:#14806D"/>
				<stop  offset="0.8317" style="stop-color:#1BBB9A"/>
			</linearGradient>
			<polygon style="fill:url(#SVGID_00000170257337861921675480000003905580386768567177_);" points="93.9,129.5 99.9,126 
				105.9,122.5 105.9,129.5 105.9,136.4 99.9,132.9 			"/>
			
				<linearGradient id="SVGID_00000153673960858058351780000008619022446409095864_" gradientUnits="userSpaceOnUse" x1="466.4268" y1="-1417.9493" x2="466.4268" y2="-1427.4326" gradientTransform="matrix(-0.5542 -0.8324 0.8324 -0.5542 1551.9915 -237.2863)">
				<stop  offset="0.2018" style="stop-color:#14806D"/>
				<stop  offset="0.8317" style="stop-color:#1BBB9A"/>
			</linearGradient>
			<polygon style="fill:url(#SVGID_00000153673960858058351780000008619022446409095864_);" points="105.3,165.5 107.7,160.6 
				110.2,155.7 113.2,160.2 116.2,164.8 110.8,165.1 			"/>
			
				<linearGradient id="SVGID_00000143613811432780181630000015704475350997004929_" gradientUnits="userSpaceOnUse" x1="424.6591" y1="-1242.0565" x2="424.6591" y2="-1254.0909" gradientTransform="matrix(0 -1 1 0 1372.5344 622.5342)">
				<stop  offset="0.2018" style="stop-color:#14806D"/>
				<stop  offset="0.8317" style="stop-color:#1BBB9A"/>
			</linearGradient>
			<polygon style="fill:url(#SVGID_00000143613811432780181630000015704475350997004929_);" points="118.4,197.9 124.5,194.4 
				130.5,190.9 130.5,197.9 130.5,204.8 124.5,201.3 			"/>
			
				<linearGradient id="SVGID_00000137117451503165109020000013648823526863433861_" gradientUnits="userSpaceOnUse" x1="397.4784" y1="-1242.0565" x2="397.4784" y2="-1254.0909" gradientTransform="matrix(0 -1 1 0 1372.5344 622.5342)">
				<stop  offset="0.2018" style="stop-color:#14806D"/>
				<stop  offset="0.8317" style="stop-color:#1BBB9A"/>
			</linearGradient>
			<polygon style="fill:url(#SVGID_00000137117451503165109020000013648823526863433861_);" points="118.4,225.1 124.5,221.6 
				130.5,218.1 130.5,225.1 130.5,232 124.5,228.5 			"/>
			
				<linearGradient id="SVGID_00000031893104674373060860000010156401977881010874_" gradientUnits="userSpaceOnUse" x1="200.9163" y1="164.3121" x2="272.4265" y2="164.3121">
				<stop  offset="0" style="stop-color:#14806D"/>
				<stop  offset="7.883297e-02" style="stop-color:#158B75"/>
				<stop  offset="0.3108" style="stop-color:#18A589"/>
				<stop  offset="0.518" style="stop-color:#1AB596"/>
				<stop  offset="0.6782" style="stop-color:#1BBB9A"/>
			</linearGradient>
			<path style="fill:url(#SVGID_00000031893104674373060860000010156401977881010874_);" d="M260,170.6c0,0,0-0.1-0.1-0.1l7.9-12.9
				l-9.9,7.5c-5.7,4.6-8.2,5-13.9,9.6c-0.8-4.7-3.5-16.6-13.7-27.3c-8.7-9.2-24.8-13.8-29.4-15.1c5.7,21.4,17.5,43,23.1,64.3h4.2
				c11.5-0.2,27.5-10.4,35.1-16.4l9-8.4l-9.3,3.7l8.4-10.2L260,170.6z"/>
			
				<linearGradient id="SVGID_00000151518534051589062890000018215676633642140565_" gradientUnits="userSpaceOnUse" x1="140.7814" y1="147.089" x2="233.7126" y2="147.089">
				<stop  offset="0" style="stop-color:#DD9D40"/>
				<stop  offset="3.864519e-02" style="stop-color:#E1A54A"/>
				<stop  offset="0.131" style="stop-color:#E9B35C"/>
				<stop  offset="0.2421" style="stop-color:#EEBD69"/>
				<stop  offset="0.3895" style="stop-color:#F1C370"/>
				<stop  offset="0.7194" style="stop-color:#F2C572"/>
			</linearGradient>
			<path style="fill:url(#SVGID_00000151518534051589062890000018215676633642140565_);" d="M233.7,203.9h-24.6
				c-22.8-15.1-45.6-30.2-68.3-45.2V90.3h22.6c8.2,4.3,15.4,8.8,21.8,13.6c1.8,1.4,3.6,2.7,5.2,4.1c3.5,2.9,6.7,5.8,9.6,8.8
				c2.3,2.4,4.5,4.8,6.5,7.2c3.6,4.3,6.6,8.6,9.3,12.9c0.4,0.6,0.8,1.3,1.1,1.9c2.1,3.6,3.9,7.1,5.5,10.6c0.9,2,1.8,4.1,2.5,6.1
				c0.1,0.2,0.1,0.3,0.2,0.5c0.5,1.3,1,2.7,1.4,4c0.5,1.6,1,3.2,1.5,4.8c0.4,1.5,0.8,2.9,1.2,4.3c0.8,3.4,1.5,6.7,2,9.7
				c0.3,2,0.6,3.9,0.8,5.7C233.1,193.5,233.2,200.3,233.7,203.9z"/>
			<g class="st9">
				<path class="st10" d="M206.5,124.1h-65.7v-7.2H200C202.3,119.2,204.5,121.6,206.5,124.1z"/>
				<path class="st10" d="M216.9,138.8h-76.1v-1.9h75C216.2,137.6,216.5,138.2,216.9,138.8z"/>
				<path class="st10" d="M226.5,160h-61.1v-10.5h57c0.9,2,1.8,4.1,2.5,6.1c0.1,0.2,0.1,0.3,0.2,0.5
					C225.6,157.3,226.1,158.6,226.5,160z"/>
				<path class="st10" d="M229.2,169.1h-35.8v-4.3H228C228.5,166.2,228.8,167.7,229.2,169.1z"/>
				<path class="st10" d="M232,184.6h-33.7v-5.7h32.9C231.5,180.8,231.8,182.8,232,184.6z"/>
				<path class="st10" d="M190.3,108h-49.6v-4.1h44.3C186.9,105.3,188.7,106.6,190.3,108z"/>
			</g>
			<g>
				<g>
					<g>
						<polygon class="st11" points="178.6,132.1 178.1,132.1 178.1,117.1 152.2,117.1 152.2,116.6 178.6,116.6 						"/>
					</g>
					<g>
						
							<rect x="166.7" y="129.2" transform="matrix(0.7533 -0.6576 0.6576 0.7533 -40.2483 151.612)" class="st11" width="30.7" height="0.5"/>
					</g>
					<g>
						
							<rect x="194.2" y="122.6" transform="matrix(0.72 -0.694 0.694 0.72 -37.1088 171.8509)" class="st11" width="0.5" height="18.7"/>
					</g>
					<g>
						<polygon class="st11" points="206.1,153.5 193.4,144 193.7,143.7 206,152.9 213.7,143.7 214.1,144 						"/>
					</g>
					<g>
						
							<rect x="180.9" y="100.6" transform="matrix(0.5578 -0.83 0.83 0.5578 -9.5679 198.0862)" class="st11" width="0.5" height="14.8"/>
					</g>
					<g>
						<path class="st11" d="M216.9,164.4l3.4,9.2l-0.4,0.2l-3.5-9.5l0.1-0.1l8.5-8.6c0.1,0.2,0.1,0.3,0.2,0.5L216.9,164.4z"/>
					</g>
				</g>
				<circle class="st11" cx="193.5" cy="118" r="2.6"/>
				<circle class="st11" cx="175" cy="103.9" r="2.6"/>
				<circle class="st11" cx="213.9" cy="143.9" r="2.6"/>
				<circle class="st11" cx="200.9" cy="139.5" r="2.6"/>
				<circle class="st11" cx="219.2" cy="175.1" r="2.6"/>
			</g>
			
				<linearGradient id="SVGID_00000143619694171120374970000005514642727146458774_" gradientUnits="userSpaceOnUse" x1="62.3962" y1="29.8376" x2="91.2782" y2="29.8376" gradientTransform="matrix(0.9287 -0.3708 0.3708 0.9287 54.9448 49.4744)">
				<stop  offset="0.1886" style="stop-color:#14806D"/>
				<stop  offset="0.8361" style="stop-color:#1BBB9A"/>
			</linearGradient>
			<circle style="fill:url(#SVGID_00000143619694171120374970000005514642727146458774_);" cx="137.4" cy="48.7" r="14.4"/>
			<g>
				<g>
					<circle class="st11" cx="137.4" cy="48.7" r="11.5"/>
					
						<radialGradient id="SVGID_00000164472997635273402270000009011340162584938659_" cx="137.278" cy="48.9088" r="9.6881" gradientUnits="userSpaceOnUse">
						<stop  offset="0.3048" style="stop-color:#5A6A9A"/>
						<stop  offset="0.3566" style="stop-color:#5A6B9B"/>
						<stop  offset="0.875" style="stop-color:#5C6D9F"/>
					</radialGradient>
					<circle style="fill:url(#SVGID_00000164472997635273402270000009011340162584938659_);" cx="137.3" cy="48.9" r="9.7"/>
				</g>
			</g>
			
				<linearGradient id="SVGID_00000152963964705044126830000008644172744187816358_" gradientUnits="userSpaceOnUse" x1="157.3315" y1="244.8288" x2="157.3315" y2="176.6821">
				<stop  offset="0.2122" style="stop-color:#1BBB9A"/>
				<stop  offset="0.2429" style="stop-color:#1BB897"/>
				<stop  offset="0.5512" style="stop-color:#179980"/>
				<stop  offset="0.8144" style="stop-color:#158772"/>
				<stop  offset="1" style="stop-color:#14806D"/>
			</linearGradient>
			<polygon style="fill:url(#SVGID_00000152963964705044126830000008644172744187816358_);" points="188.2,244.8 126.4,244.8 
				126.4,176.7 132.6,178.6 170.4,190.3 149.1,230.8 			"/>
			
				<linearGradient id="SVGID_00000119075612272458879190000015319163080798059669_" gradientUnits="userSpaceOnUse" x1="160.4062" y1="244.8288" x2="160.4062" y2="178.5893">
				<stop  offset="0.2806" style="stop-color:#F2C572"/>
				<stop  offset="0.3219" style="stop-color:#F1C26E"/>
				<stop  offset="0.761" style="stop-color:#E2A74D"/>
				<stop  offset="1" style="stop-color:#DD9D40"/>
			</linearGradient>
			<polygon style="fill:url(#SVGID_00000119075612272458879190000015319163080798059669_);" points="188.2,244.8 166.2,239.9 
				151.2,236.6 132.6,232.4 132.6,178.6 170.4,190.3 168.4,194.1 166.5,197.9 159.3,211.4 154.7,220.1 149.1,230.8 165.2,236.6 
				174.5,239.9 			"/>
			<g class="st16">
				<polygon class="st10" points="159.3,211.4 154.7,220.1 132.6,220.1 132.6,211.4 				"/>
				<polygon class="st10" points="168.4,194.1 166.5,197.9 132.6,197.9 132.6,194.1 				"/>
				<polygon class="st10" points="174.5,239.9 166.2,239.9 151.2,236.6 165.2,236.6 				"/>
			</g>
			
				<linearGradient id="SVGID_00000026853102464605009050000005929635040733899166_" gradientUnits="userSpaceOnUse" x1="170.4363" y1="203.8889" x2="170.4363" y2="34.869">
				<stop  offset="0" style="stop-color:#14806D"/>
				<stop  offset="7.883297e-02" style="stop-color:#158B75"/>
				<stop  offset="0.3108" style="stop-color:#18A589"/>
				<stop  offset="0.518" style="stop-color:#1AB596"/>
				<stop  offset="0.6782" style="stop-color:#1BBB9A"/>
			</linearGradient>
			<path style="fill:url(#SVGID_00000026853102464605009050000005929635040733899166_);" d="M159.9,100.2v42.8
				c50.1-3.5,49.2,35.4,49.2,35.4v25.4h-24.3c-46.3,0-83.8-37.5-83.8-83.8v-1.8c0.4,0.1,0.8,0.1,1.2,0.1c5.7,0,10.3-4.6,10.3-10.3
				c0-5.7-4.6-10.3-10.3-10.3c-0.4,0-0.8,0-1.2,0.1V51c0-8.9,7.2-16.1,16.1-16.1h3.4c8.6,0,15.6,6.7,16.1,15.3H220v-5.1
				c0-1.7,1.3-3,3-3h2.1c1.7,0,3,1.3,3,3v2.8c0-3.2,2.6-5.8,5.8-5.8c1.6,0,3.1,0.7,4.1,1.7c1.1,1.1,1.7,2.5,1.7,4.1v31.8H207v0.7
				c0,2.5-0.5,4.9-1.3,7c-2.8,7.3-9.7,12.5-17.9,12.8c-0.2,0-0.5,0-0.7,0H159.9z"/>
			
				<linearGradient id="SVGID_00000159434103407591825580000000678480803213819295_" gradientUnits="userSpaceOnUse" x1="174.9542" y1="89.9485" x2="206.9998" y2="89.9485">
				<stop  offset="0" style="stop-color:#DD9D40"/>
				<stop  offset="3.864519e-02" style="stop-color:#E1A54A"/>
				<stop  offset="0.131" style="stop-color:#E9B35C"/>
				<stop  offset="0.2421" style="stop-color:#EEBD69"/>
				<stop  offset="0.3895" style="stop-color:#F1C370"/>
				<stop  offset="0.7194" style="stop-color:#F2C572"/>
			</linearGradient>
			<path style="fill:url(#SVGID_00000159434103407591825580000000678480803213819295_);" d="M207,79.7c-0.4,2.6-0.9,5.2-1.3,7.7
				c-2.8,7.3-9.7,12.5-17.9,12.8c-2.3-1.9-4.6-4.3-6.7-7.2c-3.6-5-5.3-9.9-6.1-13.4H207z"/>
			
				<linearGradient id="SVGID_00000114789733912173961540000003874490020146028198_" gradientUnits="userSpaceOnUse" x1="209.1149" y1="191.8357" x2="213.898" y2="191.8357">
				<stop  offset="3.063725e-02" style="stop-color:#FC6957"/>
				<stop  offset="6.372549e-02" style="stop-color:#FC6957"/>
			</linearGradient>
			<path style="fill:url(#SVGID_00000114789733912173961540000003874490020146028198_);" d="M209.1,179.8L209.1,179.8l0,24.1h4.8
				v-19.3C213.9,181.9,211.8,179.8,209.1,179.8z"/>
			
				<linearGradient id="SVGID_00000014615339162488042150000016296925371449982102_" gradientUnits="userSpaceOnUse" x1="236.6714" y1="201.3225" x2="250.1103" y2="201.3225">
				<stop  offset="3.063725e-02" style="stop-color:#FC6957"/>
				<stop  offset="6.372549e-02" style="stop-color:#FC6957"/>
			</linearGradient>
			
				<rect x="236.7" y="198.7" style="fill:url(#SVGID_00000014615339162488042150000016296925371449982102_);" width="13.4" height="5.3"/>
			
				<linearGradient id="SVGID_00000023260227336372937360000001647689980936577444_" gradientUnits="userSpaceOnUse" x1="270.3535" y1="199.3871" x2="274.6071" y2="199.3871">
				<stop  offset="3.063725e-02" style="stop-color:#FC6957"/>
				<stop  offset="6.372549e-02" style="stop-color:#FC6957"/>
			</linearGradient>
			
				<rect x="270.4" y="194.8" style="fill:url(#SVGID_00000023260227336372937360000001647689980936577444_);" width="4.3" height="9.1"/>
			
				<linearGradient id="SVGID_00000092456163562659013380000000472445272177271975_" gradientUnits="userSpaceOnUse" x1="213.898" y1="194.8327" x2="246.0108" y2="194.8327">
				<stop  offset="0.3048" style="stop-color:#5A6A9A"/>
				<stop  offset="0.3566" style="stop-color:#5A6B9B"/>
				<stop  offset="0.875" style="stop-color:#5C6D9F"/>
			</linearGradient>
			<path style="fill:url(#SVGID_00000092456163562659013380000000472445272177271975_);" d="M213.9,185.8c2.4-0.5,11.6-1.9,21.2,3.6
				c9.5,5.5,10.1,12.8,10.9,15l-32.1-0.5V185.8z"/>
			
				<linearGradient id="SVGID_00000061455957677030344910000012551244320919923869_" gradientUnits="userSpaceOnUse" x1="250.1103" y1="198.0076" x2="271.1368" y2="198.0076">
				<stop  offset="0" style="stop-color:#474563"/>
				<stop  offset="0.1912" style="stop-color:#4F547A"/>
				<stop  offset="0.4233" style="stop-color:#56628E"/>
				<stop  offset="0.6529" style="stop-color:#5B6A9B"/>
				<stop  offset="0.875" style="stop-color:#5C6D9F"/>
			</linearGradient>
			<path style="fill:url(#SVGID_00000061455957677030344910000012551244320919923869_);" d="M266.3,192.1h-11.4
				c-2.7,0-4.8,2.2-4.8,4.8v7.1h21v-7.1C271.1,194.2,269,192.1,266.3,192.1z"/>
			
				<linearGradient id="SVGID_00000122690763846540543390000015182784953897528757_" gradientUnits="userSpaceOnUse" x1="274.6071" y1="199.0486" x2="291.7885" y2="199.0486">
				<stop  offset="0" style="stop-color:#474563"/>
				<stop  offset="0.1912" style="stop-color:#4F547A"/>
				<stop  offset="0.4233" style="stop-color:#56628E"/>
				<stop  offset="0.6529" style="stop-color:#5B6A9B"/>
				<stop  offset="0.875" style="stop-color:#5C6D9F"/>
			</linearGradient>
			<polygon style="fill:url(#SVGID_00000122690763846540543390000015182784953897528757_);" points="274.6,203.9 291.8,203.9 
				283.2,199.6 291.8,194.1 274.6,194.8 			"/>
			<rect x="172.4" y="55.4" class="st25" width="22.1" height="5.5"/>
			<rect x="191" y="65" class="st25" width="18.1" height="4.8"/>
			<rect x="201.1" y="55.4" class="st25" width="19.7" height="2.7"/>
			<rect x="146" y="159.3" class="st26" width="26.4" height="9.5"/>
			<rect x="162.9" y="179.2" class="st26" width="24.4" height="4.6"/>
			<rect x="183" y="158.1" class="st26" width="8.4" height="8.4"/>
			<g>
				
					<linearGradient id="SVGID_00000020360524703368913250000018036214985514195864_" gradientUnits="userSpaceOnUse" x1="37.8142" y1="131.9655" x2="106.3495" y2="131.9655">
					<stop  offset="0.125" style="stop-color:#5C6D9F"/>
					<stop  offset="0.4285" style="stop-color:#5B6B9C"/>
					<stop  offset="0.6217" style="stop-color:#586594"/>
					<stop  offset="0.7841" style="stop-color:#535C85"/>
					<stop  offset="0.9286" style="stop-color:#4C4E70"/>
					<stop  offset="1" style="stop-color:#474563"/>
				</linearGradient>
				<path style="fill:url(#SVGID_00000020360524703368913250000018036214985514195864_);" d="M106.3,108c0,2.9-2.4,5.3-5.3,5.3H58.2
					c-3.4,0-6.3,1.7-8.1,4.3c-0.1,0.1-0.1,0.2-0.2,0.3c-1,1.5-1.5,3.3-1.5,5.3v32.8c0,2.9-2.4,5.3-5.3,5.3H43c-0.1,0-0.2,0-0.3,0
					c-2.7-0.2-4.9-2.5-4.9-5.3v-32.8c0-3.5,0.9-6.8,2.5-9.7c0-0.1,0.1-0.2,0.1-0.3c0.7-1.2,1.4-2.2,2.3-3.2c0.1-0.1,0.2-0.2,0.3-0.3
					c3.7-4.1,9.1-6.8,15.1-6.8h42.9C104,102.8,106.3,105.1,106.3,108z"/>
			</g>
			
				<linearGradient id="SVGID_00000137837565268119289970000008277268485289665714_" gradientUnits="userSpaceOnUse" x1="38.4556" y1="169.121" x2="47.3011" y2="169.121">
				<stop  offset="0.3048" style="stop-color:#5A6A9A"/>
				<stop  offset="0.3566" style="stop-color:#5A6B9B"/>
				<stop  offset="0.875" style="stop-color:#5C6D9F"/>
			</linearGradient>
			<circle style="fill:url(#SVGID_00000137837565268119289970000008277268485289665714_);" cx="42.9" cy="169.1" r="4.4"/>
			<g>
				
					<linearGradient id="SVGID_00000111167619752906893180000002039485734226662785_" gradientUnits="userSpaceOnUse" x1="0" y1="221.091" x2="9.8116" y2="221.091">
					<stop  offset="0" style="stop-color:#DD9D40"/>
					<stop  offset="3.864519e-02" style="stop-color:#E1A54A"/>
					<stop  offset="0.131" style="stop-color:#E9B35C"/>
					<stop  offset="0.2421" style="stop-color:#EEBD69"/>
					<stop  offset="0.3895" style="stop-color:#F1C370"/>
					<stop  offset="0.7194" style="stop-color:#F2C572"/>
				</linearGradient>
				<polygon style="fill:url(#SVGID_00000111167619752906893180000002039485734226662785_);" points="6,224.2 0,227.3 9.8,214.9 
									"/>
				
					<linearGradient id="SVGID_00000048470665105978727910000006656942621641158298_" gradientUnits="userSpaceOnUse" x1="24.2873" y1="224.2288" x2="24.2873" y2="205.1454">
					<stop  offset="0.125" style="stop-color:#5C6D9F"/>
					<stop  offset="0.4285" style="stop-color:#5B6B9C"/>
					<stop  offset="0.6217" style="stop-color:#586594"/>
					<stop  offset="0.7841" style="stop-color:#535C85"/>
					<stop  offset="0.9286" style="stop-color:#4C4E70"/>
					<stop  offset="1" style="stop-color:#474563"/>
				</linearGradient>
				<path style="fill:url(#SVGID_00000048470665105978727910000006656942621641158298_);" d="M26,205.1l-16.2,9.8
					c-2.3,1.4-3.8,4-3.8,6.7v2.6l36.5-19L26,205.1z"/>
			</g>
			<g>
				
					<linearGradient id="SVGID_00000072986294313135401340000003389813614000759940_" gradientUnits="userSpaceOnUse" x1="26.32" y1="232.9713" x2="30.3694" y2="232.9713">
					<stop  offset="0" style="stop-color:#DD9D40"/>
					<stop  offset="3.864519e-02" style="stop-color:#E1A54A"/>
					<stop  offset="0.131" style="stop-color:#E9B35C"/>
					<stop  offset="0.2421" style="stop-color:#EEBD69"/>
					<stop  offset="0.3895" style="stop-color:#F1C370"/>
					<stop  offset="0.7194" style="stop-color:#F2C572"/>
				</linearGradient>
				<polygon style="fill:url(#SVGID_00000072986294313135401340000003389813614000759940_);" points="30.4,232.7 26.3,240.7 
					26.3,225.2 				"/>
				
					<linearGradient id="SVGID_00000110429043960148435130000011941210721101806523_" gradientUnits="userSpaceOnUse" x1="34.4909" y1="232.7274" x2="34.4909" y2="202.454">
					<stop  offset="0.125" style="stop-color:#5C6D9F"/>
					<stop  offset="0.4285" style="stop-color:#5B6B9C"/>
					<stop  offset="0.6217" style="stop-color:#586594"/>
					<stop  offset="0.7841" style="stop-color:#535C85"/>
					<stop  offset="0.9286" style="stop-color:#4C4E70"/>
					<stop  offset="1" style="stop-color:#474563"/>
				</linearGradient>
				<path style="fill:url(#SVGID_00000110429043960148435130000011941210721101806523_);" d="M34.8,202.5l-8,18.9
					c-1.3,3.2-0.7,6.8,1.7,9.4l1.9,2l12.5-30.3H34.8z"/>
			</g>
			
				<linearGradient id="SVGID_00000053538523810303879540000009534526371710068630_" gradientUnits="userSpaceOnUse" x1="26.0049" y1="208.9627" x2="26.0049" y2="178.4928">
				<stop  offset="0.125" style="stop-color:#5C6D9F"/>
				<stop  offset="0.4285" style="stop-color:#5B6B9C"/>
				<stop  offset="0.6217" style="stop-color:#586594"/>
				<stop  offset="0.7841" style="stop-color:#535C85"/>
				<stop  offset="0.9286" style="stop-color:#4C4E70"/>
				<stop  offset="1" style="stop-color:#474563"/>
			</linearGradient>
			<path style="fill:url(#SVGID_00000053538523810303879540000009534526371710068630_);" d="M50.6,178.5v25c0,3-2.4,5.4-5.4,5.4H1.4
				v-1c0-4,3.2-7.2,7.2-7.2H26l8.5-16l0.2-0.3l3.2-5.9H50.6z"/>
			<g class="st34">
				<path class="st35" d="M86.7,102.8v10.5H87v-10.5H86.7z M77.8,113.3h0.3v-10.5h-0.3V113.3z M63.4,113.3h0.3v-10.5h-0.3V113.3z
					 M43,109.5c-0.1,0.1-0.2,0.2-0.3,0.3v4.3l-2.3-1.1c-0.1,0.1-0.1,0.2-0.1,0.3l2.4,1.1v17.3h-4.9v0.3h4.9v16.4h-4.9v0.3h4.9v12.4
					c0.1,0,0.2,0,0.3,0v-12.4h5.3v-0.3H43v-16.4h5.3v-0.3H43v-17.1l6.9,3.2c0.1-0.1,0.1-0.2,0.2-0.3l-7-3.3V109.5z"/>
			</g>
			<g class="st34">
				<polygon class="st35" points="50.6,184.4 50.6,184.7 34.5,184.7 34.7,184.4 				"/>
			</g>
			<g>
				<polygon class="st11" points="182.5,87.5 178,79.7 187,79.7 				"/>
				<polygon class="st11" points="196.4,87.5 192,79.7 200.9,79.7 				"/>
			</g>
			<g>
				<polygon class="st36" points="218.1,87.6 213.7,79.8 222.6,79.8 				"/>
			</g>
			<g>
				<circle class="st11" cx="119.9" cy="53.8" r="13.6"/>
				
					<radialGradient id="SVGID_00000059305598813397566080000004081566240626302134_" cx="120.3017" cy="53.8384" r="9.3633" gradientUnits="userSpaceOnUse">
					<stop  offset="0.3048" style="stop-color:#5A6A9A"/>
					<stop  offset="0.3566" style="stop-color:#5A6B9B"/>
					<stop  offset="0.875" style="stop-color:#5C6D9F"/>
				</radialGradient>
				<circle style="fill:url(#SVGID_00000059305598813397566080000004081566240626302134_);" cx="120.3" cy="53.8" r="9.4"/>
				<circle class="st11" cx="120.3" cy="53.8" r="4.8"/>
				
					<linearGradient id="SVGID_00000031178317102336770980000006520725776700607635_" gradientUnits="userSpaceOnUse" x1="117.9045" y1="53.8384" x2="122.6989" y2="53.8384">
					<stop  offset="3.063725e-02" style="stop-color:#FC6957"/>
					<stop  offset="6.372549e-02" style="stop-color:#FC6957"/>
				</linearGradient>
				<circle style="fill:url(#SVGID_00000031178317102336770980000006520725776700607635_);" cx="120.3" cy="53.8" r="2.4"/>
			</g>
			<circle class="st11" cx="142.2" cy="43.1" r="3.7"/>
			<polygon class="st25" points="159.9,100.2 129.7,100.2 159.9,113.3 			"/>
		</g>
		<rect x="127.6" y="74.9" class="st25" width="5.9" height="5.9"/>
		<rect x="138.5" y="65" class="st25" width="5.9" height="5.9"/>
		<rect x="142.2" y="77.9" class="st25" width="6.6" height="6.6"/>
	</g>
	<g>
		
			<linearGradient id="SVGID_00000011754197783491740500000018044817167825520817_" gradientUnits="userSpaceOnUse" x1="525.092" y1="253.3806" x2="525.092" y2="241.148" gradientTransform="matrix(0.9123 0.4094 -0.4094 0.9123 -41.8439 -432.0721)">
			<stop  offset="6.372549e-02" style="stop-color:#FC6957"/>
			<stop  offset="0.3463" style="stop-color:#FE7F9A"/>
			<stop  offset="0.5453" style="stop-color:#FF90CC"/>
		</linearGradient>
		<polygon style="fill:url(#SVGID_00000011754197783491740500000018044817167825520817_);" points="338.5,2.9 329.4,12.2 
			337.6,15.9 		"/>
		
			<linearGradient id="SVGID_00000050636327101031579230000005878385812428912527_" gradientUnits="userSpaceOnUse" x1="470.6747" y1="-15.1424" x2="470.6747" y2="-40.2637" gradientTransform="matrix(0.9346 -0.3556 0.3556 0.9346 -118.6934 205.0069)">
			<stop  offset="6.372549e-02" style="stop-color:#FC6957"/>
			<stop  offset="0.3463" style="stop-color:#FE7F9A"/>
			<stop  offset="0.5453" style="stop-color:#FF90CC"/>
		</linearGradient>
		<polygon style="fill:url(#SVGID_00000050636327101031579230000005878385812428912527_);" points="306.9,0 307.2,26.8 324.5,20.2 
					"/>
		
			<linearGradient id="SVGID_00000093141339350991443890000002057016616864147116_" gradientUnits="userSpaceOnUse" x1="888.3258" y1="-607.3845" x2="888.3258" y2="-623.7258" gradientTransform="matrix(0.1016 0.9948 -0.9948 0.1016 -346.3089 -791.668)">
			<stop  offset="6.372549e-02" style="stop-color:#FC6957"/>
			<stop  offset="0.3463" style="stop-color:#FE7F9A"/>
			<stop  offset="0.5453" style="stop-color:#FF90CC"/>
		</linearGradient>
		<polygon style="fill:url(#SVGID_00000093141339350991443890000002057016616864147116_);" points="364.4,28.7 347.6,24.4 
			348.8,36.4 		"/>
		
			<linearGradient id="SVGID_00000078752830733449375010000010842666342853290682_" gradientUnits="userSpaceOnUse" x1="524.5497" y1="311.1619" x2="524.5497" y2="249.5232" gradientTransform="matrix(0.9123 0.4094 -0.4094 0.9123 -41.8439 -432.0721)">
			<stop  offset="0.3531" style="stop-color:#5C6D9F"/>
			<stop  offset="0.5053" style="stop-color:#596898"/>
			<stop  offset="0.7325" style="stop-color:#525B83"/>
			<stop  offset="1" style="stop-color:#474563"/>
		</linearGradient>
		<path style="fill:url(#SVGID_00000078752830733449375010000010842666342853290682_);" d="M350.1,51.1c-1,2.3-2.3,4.4-3.8,6.3
			c-0.1,0.1-0.2,0.2-0.2,0.3c-8.6,10.7-23.6,14.8-36.7,8.9c-14.4-6.5-21.4-22.6-16.8-37.3c0-0.1,0.1-0.2,0.1-0.4c0.3-1,0.7-2,1.2-3
			c0.7-1.5,1.4-2.8,2.2-4.1c0.7-1.1,1.5-2.1,2.3-3.1c8.6-10.3,23.4-14.1,36.2-8.3s19.8,19.3,17.9,32.6c-0.2,1.2-0.4,2.5-0.8,3.7
			C351.2,48.2,350.7,49.6,350.1,51.1z"/>
		<path class="st43" d="M346.3,57.4c-0.1,0.1-0.2,0.2-0.2,0.3c-7.8,0.1-17.1-1.1-26.7-5.4c-0.8-0.4-1.6-0.8-2.5-1.2
			c-11.7-5.9-19.4-14.4-24.3-21.9c0-0.1,0.1-0.2,0.1-0.4c4.9,7.5,12.6,16.1,24.3,22C327.5,56.2,337.8,57.6,346.3,57.4z"/>
		
			<linearGradient id="SVGID_00000129178335995888110430000014358373252214017169_" gradientUnits="userSpaceOnUse" x1="524.5497" y1="271.9395" x2="524.5497" y2="249.5232" gradientTransform="matrix(0.9123 0.4094 -0.4094 0.9123 -41.8439 -432.0721)">
			<stop  offset="6.372549e-02" style="stop-color:#FC6957"/>
			<stop  offset="0.3463" style="stop-color:#FE7F9A"/>
			<stop  offset="0.5453" style="stop-color:#FF90CC"/>
		</linearGradient>
		<path style="fill:url(#SVGID_00000129178335995888110430000014358373252214017169_);" d="M352.4,42.9l-54.1-24.3
			c1.3-1.6,2.8-3,4.4-4.3c0.1-0.1,0.2-0.1,0.3-0.2c2.7-2.1,5.8-3.8,9-4.9c0.1,0,0.3-0.1,0.4-0.1c7-2.3,14.9-2.1,22.1,1.2
			c1,0.5,2,1,2.9,1.5c0.1,0,0.2,0.1,0.3,0.2c5.6,3.4,9.9,8.3,12.4,14.1c0.1,0.1,0.1,0.3,0.2,0.4c1.3,3.2,2.1,6.5,2.4,10
			c0,0.1,0,0.2,0,0.3C352.8,38.8,352.7,40.9,352.4,42.9z"/>
		<path class="st11" d="M328.3,50.8c-2.4,5.4-8.8,7.8-14.2,5.4c-5.4-2.4-7.8-8.8-5.4-14.2c0.2-0.5,0.5-0.9,0.7-1.3
			c2.8-4.4,8.5-6.2,13.4-4c4.9,2.2,7.4,7.7,5.9,12.7C328.6,49.8,328.5,50.3,328.3,50.8z"/>
		
			<linearGradient id="SVGID_00000088110842626304356500000003907891659960331150_" gradientUnits="userSpaceOnUse" x1="514.0421" y1="282.8795" x2="535.2502" y2="282.8795" gradientTransform="matrix(0.9123 0.4094 -0.4094 0.9123 -41.8439 -432.0721)">
			<stop  offset="3.063725e-02" style="stop-color:#FC6957"/>
			<stop  offset="6.372549e-02" style="stop-color:#FC6957"/>
		</linearGradient>
		<path style="fill:url(#SVGID_00000088110842626304356500000003907891659960331150_);" d="M328.8,49.3l-19.3-8.7
			c2.8-4.4,8.5-6.2,13.4-4C327.8,38.8,330.2,44.3,328.8,49.3z"/>
		<path class="st46" d="M323.2,48.6c-1.1,2.4-3.9,3.5-6.3,2.4c-2.4-1.1-3.5-3.9-2.4-6.3c0.2-0.5,0.5-1,0.9-1.3l8.2,3.7
			C323.6,47.6,323.5,48.1,323.2,48.6z"/>
		
			<linearGradient id="SVGID_00000060731981365539977800000002074051036378121904_" gradientUnits="userSpaceOnUse" x1="522.8127" y1="305.5261" x2="526.2867" y2="305.5261" gradientTransform="matrix(0.9123 0.4094 -0.4094 0.9123 -41.8439 -432.0721)">
			<stop  offset="3.063725e-02" style="stop-color:#FC6957"/>
			<stop  offset="6.372549e-02" style="stop-color:#FC6957"/>
		</linearGradient>
		<circle style="fill:url(#SVGID_00000060731981365539977800000002074051036378121904_);" cx="311.6" cy="61.4" r="1.7"/>
		<g class="st34">
			<path class="st11" d="M352.7,36.5l-21.6-9.7l3.3-7.4l15.9,7.1c-0.1-0.1-0.1-0.3-0.2-0.4l-15.6-7l3.2-7.1
				c-0.1-0.1-0.2-0.1-0.3-0.2l-3.2,7.1l-21.9-9.8c-0.1,0-0.3,0.1-0.4,0.1l22.2,10l-3.3,7.4L303,14.2c-0.1,0.1-0.2,0.1-0.3,0.2
				l28,12.6l-2.3,5.2l0.3,0.1l2.3-5.2l21.7,9.7C352.7,36.7,352.7,36.6,352.7,36.5z"/>
		</g>
		<path class="st48" d="M351.7,46.7l-55.6-24.9c0.7-1.1,1.5-2.1,2.3-3.1l54.1,24.3C352.3,44.2,352,45.4,351.7,46.7z"/>
	</g>
</g>
</svg>
